# xmcd
#
# Track frame offsets: 
#        150
#        16220
#        30809
#        48411
#        61940
#        82836
#        98118
#        111291
#        129043
#        142821
#        156850
#
# Disc length: 2294 seconds
#
# Revision: 0
# Processed by: cddbd v1.5.2PL0 Copyright (c) Steve Scherf et al.
# Submitted via: ExactAudioCopy v0.95b4
#
DISCID=7408f40b
DTITLE=Dwight Yoakam - Buenas Noches From a Lonely Room
DYEAR=1988
DGENRE=
TTITLE0=I've Got You
TTITLE1=One More Name
TTITLE2=What I Don't Know
TTITLE3=Home of the Blues
TTITLE4=Buenas Noches From a Lonely Room (She Wore Red Dresses)
TTITLE5=I Hear You Knockin'
TTITLE6=I Sang Dixie
TTITLE7=Streets of Bakersfield
TTITLE8=Floyd County
TTITLE9=Send Me the Pillow
TTITLE10=Hold On to God
EXTD=
EXTT0=
EXTT1=
EXTT2=
EXTT3=
EXTT4=
EXTT5=
EXTT6=
EXTT7=
EXTT8=
EXTT9=
EXTT10=
PLAYORDER=
